<svg width="101" height="130" viewBox="0 0 101 130" fill="none" xmlns="http://www.w3.org/2000/svg">
<path fill-rule="evenodd" clip-rule="evenodd" d="M31.5342 0.108267C31.8938 0.235875 32.3963 0.487576 33.1305 0.908333C33.4504 1.09171 33.8817 1.30899 34.0888 1.39114L34.4652 1.54085L36.3251 1.54562C40.7626 1.55743 41.8801 2.10027 43.7653 5.15861C44.5051 6.35884 44.9705 6.96096 45.5174 7.42517L45.9351 7.77961L47.6962 7.80951C50.5247 7.85749 51.7958 8.20288 51.7961 8.92332C51.7973 11.835 52.8371 12.9345 56.8125 14.2284C63.0248 16.2503 64.7731 17.9574 62.8887 20.1612C61.7309 21.5151 60.5937 21.7267 55.7134 21.4968C52.9333 21.3659 51.6643 21.6902 51.0141 22.6983C50.7682 23.0794 50.7714 23.0829 51.3312 23.057C52.3579 23.0098 53.5353 23.2454 55.7159 23.9344C59.3943 25.0967 60.5987 25.1213 63.0397 24.0844C64.6155 23.415 65.3021 23.2431 65.2319 23.5358C64.8885 24.9656 63.5747 26.2575 62.1385 26.5778C60.4929 26.9445 58.658 26.6562 56.1643 25.6386C53.4871 24.5461 52.4776 24.3029 51.2045 24.4441C50.3722 24.5366 50.4038 24.5205 50.2818 24.9156C49.4021 27.7667 51.3721 29.0164 56.0797 28.5937C56.7287 28.5354 59.4026 28.1696 59.5882 28.1139C59.8526 28.0342 59.6286 28.8509 59.2075 29.5022C58.0088 31.3566 57.3041 31.8035 55.4599 31.8783C53.8562 31.9431 53.2671 32.1489 52.9477 32.7553C52.8058 33.0246 53.6484 33.7279 54.4064 33.9728C55.5333 34.3368 56.3878 34.2868 59.0951 33.6978C61.6355 33.1451 62.7334 33.0439 63.6606 33.2773C64.6299 33.5212 64.6223 33.8118 63.6323 34.3481C62.7258 34.839 62.5407 35.049 62.5778 35.5441C62.6218 36.1334 63.0081 36.3474 64.4067 36.5567C65.4349 36.7104 66.025 37.0251 66.7918 37.8282C67.6677 38.7456 67.9947 39.5077 67.9669 40.5675C67.8983 43.1712 67.897 43.1664 68.8679 44.3998C69.6425 45.384 69.7519 45.4694 70.3457 45.5576C70.5924 45.5943 70.6126 45.587 70.7331 45.4187C71.2338 44.7188 71.0926 43.9514 70.1703 42.3618C69.106 40.5276 68.3674 38.8664 68.3232 38.2073C68.2646 37.3341 68.678 37.0251 70.2745 36.7493C72.7687 36.3183 73.1573 35.9606 73.8931 33.4184C74.7357 30.5065 74.6324 29.8961 72.5935 25.7365C71.5747 23.6579 71.0803 22.5094 70.8202 21.6166C69.3981 16.7346 71.6865 13.4876 76.9297 12.9473C77.9551 12.8415 80.8394 12.9513 80.9914 13.1018C81.0608 13.1706 80.5475 13.4899 79.6663 13.9259C78.277 14.614 77.925 14.9669 77.925 15.6718C77.925 17.0292 79.838 17.4721 83.9507 17.0674C84.3332 17.03 84.3204 17.0865 83.9121 17.2357C82.5072 17.7499 81.6656 19.2026 81.8926 20.7219C82.0403 21.7086 82.2488 22.1215 83.0235 22.961C83.7671 23.7669 83.7845 23.8224 83.7671 25.3457C83.7467 27.1613 83.8191 27.2781 84.8807 27.1385C85.1801 27.099 85.4533 27.0764 85.4877 27.0885C85.5894 27.1242 85.3882 27.6235 85.0768 28.1083C84.31 29.3025 84.1327 29.6098 83.9749 30.017C83.6949 30.7389 83.658 31.1707 83.778 32.3144C83.9623 34.0698 83.7613 34.4682 82.6281 34.5958C81.2467 34.751 81.227 35.6667 82.5743 37.105C83.2874 37.8661 83.4356 38.1809 83.4636 38.9918C83.5098 40.3342 83.2313 40.8737 81.6671 42.4736C80.4864 43.6809 80.0953 44.2036 79.8981 44.8367C79.8408 45.021 80.1039 45.0808 80.9858 45.0836C81.454 45.0853 81.8135 45.1125 81.909 45.1537L82.0658 45.2212L81.8903 45.4322C81.7941 45.5483 81.4446 45.8625 81.1139 46.1308C79.3438 47.5672 78.9772 48.1379 78.9323 49.5293C78.9093 50.2331 78.9179 50.2183 78.3841 50.4851C76.9968 51.1789 73.4113 51.137 71.3199 50.4027C69.5935 49.7966 67.8164 48.3964 66.7365 46.7912C66.1035 45.8507 65.7444 45.5297 65.3253 45.5297C65.0086 45.5297 65.17 46.1411 65.8053 47.3491C66.203 48.106 66.3939 48.6287 66.3939 48.9618C66.3939 49.4037 65.069 49.0462 63.3947 48.1527C62.0198 47.419 61.2487 47.1557 60.4735 47.1557C59.9064 47.1557 59.9917 48.2813 60.6129 48.9905C61.6211 50.1417 64.0613 50.8908 69.691 51.7773C70.776 51.9481 72.2978 52.2121 73.0727 52.3643C76.099 52.9581 78.1798 52.8888 81.4989 52.083C84.6602 51.3153 85.4614 50.6976 86.5439 48.1932C87.6569 45.6181 88.4283 44.9484 90.6147 44.6591C91.529 44.538 94.028 44.5747 94.1653 44.7111C94.2083 44.754 94.104 44.8997 93.4126 45.7621C91.9817 47.5466 91.7171 48.5461 92.5011 49.2037C92.9788 49.6047 93.4649 49.6047 94.7721 49.2047C96.48 48.6823 97.4524 48.6694 98.4316 49.1565C98.8285 49.3542 99.9855 50.0814 99.9855 50.1332C99.9855 50.2226 99.6294 50.4223 99.182 50.5838C97.941 51.0317 97.948 51.2199 99.2678 52.8469C99.7514 53.443 99.9405 53.7735 100.307 54.6645C100.506 55.1451 100.742 55.6706 100.834 55.8319C100.925 55.9934 101 56.2001 101 56.2913V56.4571L100.76 56.3197C98.3987 54.966 96.8575 56.5118 96.8575 60.2344C96.8575 60.9669 96.8363 61.566 96.8105 61.566C96.7848 61.566 96.1505 61.2628 95.4016 60.8917C92.9872 59.6968 92.3637 59.6486 89.5951 60.4408C88.9598 60.6227 88.2414 60.8006 87.9988 60.8362C87.2256 60.9495 87.2597 60.9322 87.4801 61.098C87.5849 61.1766 88.1778 61.4904 88.7977 61.7951C90.4293 62.5969 90.4132 62.573 89.5514 62.9086C88.4217 63.3487 87.4819 63.2746 85.2975 62.5735C83.2576 61.9186 82.9205 61.9249 80.6535 62.6607C78.4328 63.3811 77.4827 63.4522 75.243 63.0644C74.6077 62.9546 74.0837 62.8689 74.0784 62.8742C74.0734 62.8795 74.3183 63.2925 74.6226 63.7923C75.3665 65.0129 75.6937 65.8931 75.6937 66.6721C75.6937 67.0511 75.6162 67.0393 74.8678 66.546C73.832 65.8635 73.783 65.8514 72.1148 65.877C69.7062 65.914 68.7972 65.913 68.5787 65.8733L68.3682 65.8348L68.4096 66.4339C68.5851 68.967 68.407 72.1736 68.0195 73.4607C67.9094 73.8262 67.6657 73.7915 67.4587 73.3811C67.3291 73.1244 67.1377 72.8925 67.0552 72.8925C66.737 72.8925 65.5647 71.743 65.2715 71.1432L65.0589 70.7088L64.9655 71.0939C64.9142 71.3057 64.796 71.9294 64.7031 72.48C64.4486 73.9865 64.1431 74.9116 63.7972 75.2231C63.6411 75.3635 63.5608 75.2997 63.3237 74.8463C62.7935 73.8335 62.548 73.7267 62.039 74.2872C61.6615 74.7029 61.5125 75.1606 61.3219 76.4909C61.0722 78.2307 60.5391 79.3749 59.4792 80.4455C58.9954 80.9341 59.0161 80.9311 58.73 80.554C58.306 79.9954 58.0848 79.2576 57.9129 77.8265C57.6127 75.3314 57.4266 74.6185 56.9276 74.0533C56.6554 73.7448 56.639 73.7579 55.1975 75.4208C53.5338 77.3402 52.948 77.7497 50.951 78.39C48.2654 79.2508 43.8264 82.0909 40.7623 84.9088C38.1783 87.2849 36.5779 89.3229 36.1833 90.7399C36.0502 91.2174 36.0391 91.2031 36.4279 91.0582C37.2491 90.7527 38.0475 90.0524 39.082 88.7303C41.4807 85.6652 44.2042 83.2831 47.9891 80.9394C51.8322 78.5595 53.1298 78.2408 54.5049 79.3388C57.6442 81.8452 59.1883 84.6119 59.2779 87.8913C59.3208 89.4658 59.1413 90.4151 58.3843 92.6161C57.1971 96.0676 57.0165 96.8473 57.0185 98.517C57.0216 101.248 58.4219 102.974 60.5593 102.881C61.763 102.828 62.465 102.219 63.7436 100.115C65.3882 97.4095 66.2628 96.6732 67.9556 96.57C70.3293 96.425 72.2218 97.9613 74.3322 101.746C74.7804 102.55 74.7923 102.532 73.9189 102.353C73.1967 102.204 72.9796 102.31 72.749 102.923C72.5357 103.49 72.5837 105.092 72.8523 106.381C72.897 106.596 72.8248 106.584 72.0746 106.26C70.1978 105.449 69.5577 105.922 68.5883 108.834C68.3985 109.404 68.2331 109.882 68.2207 109.894C68.1763 109.94 67.948 109.694 67.5748 109.198C66.6716 107.999 66.3545 107.948 64.7031 108.741C63.1422 109.491 61.3204 109.697 58.3742 109.457C57.8538 109.415 57.4152 109.393 57.3998 109.409C57.3842 109.424 57.4003 109.722 57.4354 110.071C57.5129 110.844 57.5331 111.836 57.4725 111.896C57.3761 111.993 56.9791 111.687 56.2229 110.931C55.0642 109.774 54.9195 109.687 54.5135 109.894C54.239 110.035 54.0721 110.22 53.7009 110.796C53.3129 111.399 53.2247 111.478 53.1081 111.327C52.9611 111.137 52.6685 110.469 52.2743 109.423C51.1017 106.309 50.3434 105.745 49.3011 107.208C49.2027 107.346 49.2019 107.343 49.2448 106.984C49.5231 104.651 47.9689 103.813 45.9777 105.223L45.7108 105.412L45.5982 105.193C45.2568 104.527 45.1783 104.067 45.1808 102.75C45.1831 101.396 45.1717 101.479 45.7295 98.7966C46.5835 94.6897 45.6636 93.2923 41.889 92.9617C40.774 92.8643 35.6899 93.0818 35.5616 93.2325C35.5422 93.2554 35.4697 93.5503 35.4002 93.8874C34.7503 97.052 32.8634 99.7534 29.7503 101.977C28.3181 103 27.0435 103.731 23.08 105.806C20.1091 107.361 19.548 107.663 18.6274 108.207C14.2556 110.788 12.3811 113.492 12.3811 117.216C12.3811 118.247 12.5619 119.78 12.6995 119.917C12.7149 119.932 13.1292 119.794 13.6204 119.61C17.7371 118.066 19.6124 118.733 21.3885 122.375C22.8295 125.331 22.5919 126.939 20.4356 128.821C19.9682 129.229 19.4907 129.667 19.3743 129.796C19.0941 130.105 19.1011 130.109 18.8539 129.482C18.156 127.711 17.5841 127.122 16.5544 127.116C15.6638 127.11 15.0452 127.478 13.5744 128.888C12.5977 129.824 12.5283 129.873 12.4833 129.652C12.091 127.721 11.0199 127.11 7.15282 126.612C4.85734 126.316 4.64675 126.268 4.57075 126.029C4.09984 124.545 4.14883 122.501 4.73488 119.207C4.95304 117.98 5.12802 116.892 5.12852 116.758C5.12903 116.663 4.77098 116.724 4.42178 116.878C4.00465 117.062 3.78421 117.282 3.27391 118.023C2.51186 119.128 2.51768 119.13 2.59342 117.884C2.69846 116.155 2.88102 115.6 3.6615 114.637C4.49651 113.606 4.54954 113.344 3.91223 113.392C3.33098 113.435 2.84239 113.675 2.05711 114.3L1.43723 114.793L1.41955 114.616C1.32285 113.65 2.21064 112.16 3.7365 110.727C5.23129 109.323 5.94587 108.563 5.85548 108.473C5.71811 108.336 3.32467 108.306 2.8886 108.435C2.17756 108.646 4.00515 106.526 5.4896 105.418C6.72281 104.498 7.6366 103.981 11.1032 102.243C16.5034 99.5356 16.6584 99.352 16.2883 96.1057C15.9338 92.9974 16.1095 88.5309 16.6872 85.9664C16.7604 85.6416 16.7789 85.6433 16.2294 85.9249C13.2724 87.4412 9.61545 87.196 7.09272 85.3125C6.08575 84.5604 5.55955 83.9075 4.70004 82.3431C4.15413 81.3493 3.29336 80.6925 1.97253 80.2617C1.2327 80.0205 1.29179 79.921 2.26846 79.7648C3.30775 79.5985 3.39638 79.5196 3.12367 79.0032C2.71715 78.2335 2.222 77.7441 0.802444 76.709C0.252502 76.308 0 76.0898 0 76.0159C0 75.935 0.0244904 75.9184 0.0987244 75.9493C0.833748 76.2558 1.76523 76.3829 2.27401 76.246L2.54697 76.1727L2.71285 75.5278C3.89228 70.9404 6.38017 67.2749 10.2861 64.3706C11.2125 63.6816 11.5304 63.4713 14.3157 61.7076C23.3219 56.0044 24.8553 54.3601 24.8548 50.408C24.8546 46.9811 23.3744 44.8547 21.0792 44.9834C19.7026 45.0605 19.3877 45.6279 19.2491 48.2801C19.1516 50.148 19.0943 50.4404 18.6557 51.3053C16.586 55.3887 8.27038 57.4456 2.38132 55.3302C1.74628 55.1024 1.56903 55.2559 3.84607 54.0607C7.50227 52.1413 8.53223 51.2201 9.44628 49.0528C10.7858 45.8769 14.1819 43.1501 17.6694 42.451C24.6081 41.0599 29.4458 47.1097 27.0137 54.1365C26.2259 56.4129 25.2699 57.4757 22.3755 59.2936C15.3876 63.6831 10.1576 68.271 8.93143 71.0869C7.34598 74.7285 8.68726 78.6826 11.7233 79.3172C13.9342 79.7791 15.8719 78.9416 19.3885 76.0041C22.7207 73.2203 24.5483 71.9912 28.0399 70.1858C31.9809 68.1484 33.4694 67.1225 35.6868 64.9165C38.3146 62.3022 39.3973 59.9789 39.3966 56.9565C39.3958 54.0187 38.2229 52.1945 35.8573 51.452C35.0528 51.1995 34.7523 51.2648 34.2607 51.8001C33.9802 52.1053 33.8923 52.2691 32.8823 54.3689C32.497 55.1697 32.0109 55.6706 31.5259 55.7673L31.356 55.801L31.1996 55.2212C29.8526 50.2223 29.2297 48.7265 27.22 45.6626C24.874 42.0863 24.7167 41.6464 24.3746 37.7092C24.2857 36.6848 24.1923 35.9897 24.0638 35.3936L24.0032 35.1125L23.7108 35.1891C22.6313 35.472 21.6716 36.364 21.0161 37.6938C20.9136 37.9018 20.8148 38.0724 20.7967 38.0724C20.7457 38.0724 19.7574 34.7367 19.5006 33.6988C19.2408 32.647 18.9744 31.1574 18.8852 30.2551C18.8145 29.5394 18.8345 29.5758 18.5608 29.6625C17.9154 29.8667 17.3339 30.2204 16.2663 31.0587C15.8704 31.3697 15.5197 31.6241 15.4871 31.6241C15.3977 31.6241 15.4717 29.1408 15.5815 28.456C15.7181 27.6032 16.0878 26.1538 16.3266 25.5346C16.359 25.4512 16.3269 25.4456 16.0297 25.4823C15.0927 25.5981 14.1665 26.0804 13.2886 26.9099C12.7419 27.4263 12.7295 27.4341 12.7603 27.2465C12.7778 27.1407 12.8303 26.7838 12.877 26.4532C13.23 23.9613 13.9423 22.1607 16.2885 17.8306C16.4973 17.4452 16.7728 16.9227 16.9006 16.6695L17.1326 16.2093L16.922 16.1659C16.6415 16.1081 15.6595 16.1091 14.9781 16.1676C14.3387 16.2226 14.339 16.2229 14.5465 15.671C15.0864 14.2354 17.0354 12.738 20.1351 11.3778C20.3752 11.2725 20.5719 11.1698 20.5719 11.1499C20.5722 10.9736 19.8114 10.5227 19.0837 10.268C18.3908 10.0253 18.4014 10.0605 18.861 9.51841C19.9897 8.18781 21.1002 7.59197 22.6995 7.45883C23.0792 7.42718 23.7009 7.37544 24.0807 7.34379C25.4942 7.22622 25.9615 6.94538 25.9507 6.22043C25.9434 5.74441 25.7621 5.48341 24.7589 4.50625C24.2246 3.98576 23.8559 3.58586 23.8908 3.56451C24.2408 3.34923 25.2174 3.18143 26.8465 3.05658C29.211 2.87522 30.0846 2.45597 30.3462 1.37757C30.3957 1.17435 30.3957 0.338615 30.3465 0.143685L30.3103 0L30.7815 0.00401917C31.081 0.00678236 31.3552 0.0447133 31.5342 0.108267ZM32.8025 8.69272C31.461 8.86504 31.4766 8.84319 31.4814 10.5134C31.4898 13.5316 32.6116 15.7393 34.8273 17.0976C35.5841 17.5615 35.7747 17.6193 36.06 17.4714C36.6819 17.1488 36.3421 16.5407 35.1967 15.9265C33.9746 15.2714 33.2154 14.0792 32.8641 12.2648C32.7614 11.7332 32.5975 10.0537 32.644 10.0075C32.7073 9.94444 33.4855 9.86933 34.0706 9.87009C35.322 9.87134 36.0237 10.0082 37.2314 10.4873C38.9767 11.1796 39.7887 10.8329 38.7259 9.84949C37.8111 9.00295 34.8654 8.42771 32.8025 8.69272ZM46.7314 12.8742C45.8656 13.0663 45.0064 13.5213 44.0176 14.311C42.955 15.1598 42.8303 15.4452 43.4406 15.6288C43.6499 15.6916 44.2534 15.9081 44.7816 16.1099C45.9409 16.5525 47.0087 16.8212 47.6066 16.8212C47.6536 16.8212 47.6818 16.0968 47.6955 14.5341L47.7111 12.7235L47.4006 12.7589C47.2299 12.7785 46.9286 12.8305 46.7314 12.8742ZM27.6939 27.8255C27.3748 28.038 27.3682 28.1026 27.5609 29.1069C28.0919 31.8743 29.6854 33.3845 31.4779 32.8188C32.1634 32.6025 32.2758 32.5098 32.3475 32.1004C32.5268 31.076 32.1119 30.6319 30.9095 30.5605C29.6728 30.4874 29.1572 30.035 28.7196 28.6391C28.4025 27.6278 28.2146 27.4788 27.6939 27.8255ZM43.3035 32.6385C42.9901 32.7892 42.9909 32.812 43.3452 33.9042C43.5017 34.3871 43.6451 34.946 43.6641 35.1462L43.6982 35.5102L43.4497 35.4717C43.0656 35.4127 42.6836 35.1997 42.1339 34.7382C41.3398 34.072 40.9517 33.9648 40.6396 34.3255L40.4452 34.5501L40.5805 34.8113C41.3408 36.2793 43.4532 37.0379 44.6599 36.2766L44.9352 36.1027L44.8968 35.5596C44.7362 33.2773 44.162 32.225 43.3035 32.6385ZM53.5386 36.4903L53.3626 36.6468L53.5406 37.1754C53.7727 37.8644 54.0315 38.4055 54.6536 39.502C55.1437 40.3661 55.4599 40.9569 55.4599 41.0091C55.4599 41.0938 54.3095 40.7524 52.7546 40.2063C51.3608 39.7167 50.346 39.4479 50.2359 39.5389C49.8988 39.817 49.9218 41.0179 50.294 42.5859C50.5578 43.6975 50.7076 44.5568 50.648 44.6164C50.5608 44.7028 49.5862 44.1222 48.61 43.4021C47.4806 42.5691 46.4731 41.9969 46.1037 41.9788C45.6909 41.9587 45.5596 42.5163 45.7944 43.2945C45.9664 43.8653 46.1643 44.7158 46.9269 48.165C47.2506 49.63 47.5293 50.8727 47.5463 50.9265C47.6917 51.3932 45.5598 49.7147 42.9475 47.3057C42.2092 46.6247 42.0099 46.5556 41.6511 46.856C41.3479 47.11 41.2885 47.4637 41.3471 48.6697C41.4057 49.8722 41.4085 50.9483 41.3534 51.0033C41.2981 51.0581 40.9891 50.8305 40.1576 50.1221C38.6984 48.8787 38.049 48.4461 36.8496 47.9189C36.0234 47.5556 35.8512 47.5345 35.6161 47.7681C35.1609 48.221 35.5558 48.7076 36.7059 49.1105C37.57 49.4135 38.1942 49.8948 39.9887 51.6414C41.765 53.3704 41.9642 53.508 42.2622 53.2119C42.6354 52.8406 42.6836 52.3799 42.5856 50.1239C42.5548 49.4085 42.5558 48.935 42.5889 48.8764C42.6899 48.6966 45.0339 50.5454 46.5256 51.982C47.7129 53.1252 48.6434 53.757 48.9615 53.6354C49.2327 53.5319 49.3198 52.8592 49.1436 52.2302C49.0832 52.0144 48.8181 50.9167 48.555 49.791C47.6329 45.8487 47.272 44.3237 47.2458 44.2541C47.1112 43.9009 48.1563 44.481 49.5592 45.5377C50.3154 46.1075 51.2517 46.6272 51.6279 46.6865C52.1112 46.7623 52.222 46.0361 51.9201 44.7729C51.8244 44.3719 51.6809 43.5744 51.6017 43.0006C51.5221 42.4269 51.4093 41.771 51.3507 41.5429C51.2923 41.3149 51.255 41.1172 51.2679 41.1036C51.3686 40.9986 54.6099 41.9881 55.5591 42.4136C56.2567 42.7263 56.8403 42.7532 57.1625 42.4877L57.3152 42.3616L57.1564 41.877C56.9688 41.3056 56.5166 40.3528 56.0419 39.5301C55.5687 38.7094 55.197 38.0121 55.1503 37.8566L55.1106 37.7247L55.6093 37.7619C57.4008 37.895 58.8252 38.2615 59.6471 38.8006C60.2877 39.2209 60.4346 39.2417 60.7108 38.9526C61.4999 38.1276 59.6223 37.1223 56.2489 36.5632C54.6718 36.3019 53.7777 36.2778 53.5386 36.4903ZM30.0169 38.1143C29.6114 38.4366 29.7117 38.8026 30.7651 40.8421C31.133 41.5545 31.5923 42.5284 31.786 43.0064C32.5866 44.9836 33.0242 45.5862 33.6592 45.5855C34.4771 45.585 34.7935 44.8432 35.0579 42.3061C35.1672 41.2556 35.3086 40.4274 35.3783 40.4274C35.9664 40.4274 38.9961 44.12 39.0804 44.9396C39.1963 46.066 39.588 46.4496 40.3391 46.1728C42.0155 45.5546 41.9665 44.4784 40.2078 43.2986C39.4688 42.8027 39.0234 42.3749 37.948 41.1282C36.6178 39.5864 35.8017 38.9305 34.9856 38.7481C34.4817 38.6353 34.142 39.5452 33.9304 41.5771C33.8201 42.6382 33.6759 43.5887 33.6095 43.6957C33.5254 43.8311 32.805 42.5191 32.1074 40.9599C31.3358 39.2347 31.2888 39.1372 30.9292 38.5067C30.5252 37.7983 30.4538 37.7674 30.0169 38.1143ZM64.4799 38.828C63.9666 39.0922 63.9625 39.4085 64.4655 39.9395C64.9354 40.4354 65.0389 40.6009 65.299 41.2719C65.6821 42.2591 65.7853 42.3636 66.1881 42.1697C66.6282 41.9577 66.6484 41.9089 66.5077 41.3995C66.0295 39.6652 65.1127 38.5027 64.4799 38.828ZM60.9442 40.3432C60.4225 40.7067 60.4957 40.9662 61.5135 42.3616C61.9062 42.8997 62.0897 43.2518 62.416 44.0913C62.9705 45.5189 63.2177 45.7636 63.759 45.4212C64.0736 45.2222 64.0618 45.2963 63.884 44.6357C63.5803 43.5086 62.9894 42.3696 61.9751 40.9576C61.4315 40.2008 61.279 40.1099 60.9442 40.3432ZM55.325 50.2126C54.9773 50.3766 54.9261 50.5487 54.917 51.5854C54.9011 53.3709 54.5642 54.9939 54.1567 55.2476C53.8524 55.437 53.4202 54.9198 53.0636 53.9403C52.7581 53.1003 52.5584 52.8496 52.1958 52.8496C51.7198 52.8496 51.5537 53.2337 51.7297 53.9268C52.2748 56.0705 54.0923 57.2461 55.1399 56.132C55.7949 55.4352 55.975 54.6442 56.0808 51.9948L56.1373 50.5818L55.9136 50.3547C55.6674 50.1048 55.5917 50.0867 55.325 50.2126ZM48.4934 63.6896C48.4593 63.7089 48.3469 63.7964 48.2437 63.8838L48.056 64.043L48.1283 64.4701C48.1679 64.7052 48.275 65.1473 48.3664 65.4528C48.837 67.0288 48.8292 66.9717 48.8335 68.8552C48.8378 70.7277 48.8709 70.9291 49.2322 71.2665C49.489 71.5066 50.0634 71.1319 50.5985 70.3757C51.382 69.2682 51.4406 69.2255 51.7284 69.5516C51.9579 69.8118 52.1044 70.2248 52.3655 71.3504C52.8235 73.3236 53.0846 73.8179 53.608 73.7036C54.6354 73.479 53.5414 69.6608 51.9554 67.9351C51.5294 67.4716 51.2807 67.5513 50.6732 68.3453C50.1518 69.0266 50.1233 69.0276 50.0816 68.3639C49.9604 66.4292 49.671 65.1237 49.1244 64.0435C48.8901 63.5806 48.787 63.5228 48.4934 63.6896ZM51.8314 80.4415C48.855 81.6211 45.0076 84.4049 41.6764 87.7896C41.0562 88.4196 40.858 89.0064 41.1067 89.4754C41.3224 89.8823 41.6256 89.6876 43.2591 88.094C46.8117 84.6282 48.8363 83.0836 51.6178 81.7171C53.0596 81.0087 53.1525 80.901 52.7048 80.4553C52.4384 80.1906 52.4639 80.1908 51.8314 80.4415ZM52.6137 84.103C49.3771 85.6328 45.3121 89.9454 45.9149 91.2094C46.2189 91.8464 46.8249 91.4681 47.5392 90.1958C48.6679 88.1862 50.6624 86.3894 53.0364 85.2434C54.4567 84.5579 54.7327 84.2097 54.2206 83.7495L53.9961 83.5476L53.5866 83.692C53.3613 83.7716 52.9235 83.9563 52.6137 84.103Z" fill="black"/>
</svg>
